PathFileType	4	(X/Y/Z)	 control3min.trc
DataRate	CameraRate	NumFrames	NumMarkers	Units	OrigDataRate	OrigDataStartFrame	OrigNumFrames
200	200	9	35	m	200	751	1000
Frame#	Time	C7			LSH			RSH			MAN			RASI			LASI			HIPR			HIPL			RPSI			LPSI			COX			RTHI1			RTHI2			RTHI3			RTHI4			RSHA1			RSHA2			RSHA3			RSHA4			RHEEL			RMET5			RMET1			RTOE			LTHI1			LTHI2			LTHI3			LTHI4			LSHA1			LSHA2			LSHA3			LSHA4			LHEEL			LMET5			LMET1			LTOE			
		X1	Y1	Z1	X2	Y2	Z2	X3	Y3	Z3	X4	Y4	Z4	X5	Y5	Z5	X6	Y6	Z6	X7	Y7	Z7	X8	Y8	Z8	X9	Y9	Z9	X10	Y10	Z10	X11	Y11	Z11	X12	Y12	Z12	X13	Y13	Z13	X14	Y14	Z14	X15	Y15	Z15	X16	Y16	Z16	X17	Y17	Z17	X18	Y18	Z18	X19	Y19	Z19	X20	Y20	Z20	X21	Y21	Z21	X22	Y22	Z22	X23	Y23	Z23	X24	Y24	Z24	X25	Y25	Z25	X26	Y26	Z26	X27	Y27	Z27	X28	Y28	Z28	X29	Y29	Z29	X30	Y30	Z30	X31	Y31	Z31	X32	Y32	Z32	X33	Y33	Z33	X34	Y34	Z34	X35	Y35	Z35	
751	3.7550	-0.286079	1.419643	-0.561907	-0.238436	1.375678	-0.739579	-0.196569	1.379593	-0.393179	-0.173518	1.366531	-0.573452	-0.120733	0.969612	-0.483472	-0.126711	0.986370	-0.667274	-0.178228	1.025938	-0.436270	-0.179840	1.034310	-0.703021	-0.269312	1.010852	-0.505976	-0.273182	1.014098	-0.619492	-0.277161	1.020804	-0.563323	-0.234591	0.769481	-0.413205	-0.220760	0.711736	-0.404167	-0.159121	0.725052	-0.389302	-0.164843	0.785980	-0.395608	-0.273550	0.343739	-0.377378	-0.286418	0.305340	-0.377183	-0.233471	0.287538	-0.364590	-0.216468	0.326913	-0.365868	-0.336913	0.143796	-0.406026	-0.212799	0.035572	-0.359615	-0.185818	0.040685	-0.432861	-0.167175	0.029153	-0.424398	-0.204486	0.781262	-0.752527	-0.193398	0.720838	-0.756812	-0.129291	0.725686	-0.745927	-0.132996	0.785126	-0.740858	-0.277261	0.331387	-0.776472	-0.284067	0.287407	-0.775329	-0.231139	0.277570	-0.769716	-0.216939	0.315691	-0.770576	-0.348029	0.160692	-0.729699	-0.227751	0.043902	-0.790293	-0.203220	0.042689	-0.722673	-0.183449	0.027441	-0.733392	
752	3.7600	-0.286129	1.423888	-0.561798	-0.238786	1.380190	-0.739377	-0.196708	1.383931	-0.393247	-0.173692	1.370911	-0.573434	-0.120541	0.973750	-0.483643	-0.126421	0.990499	-0.667194	-0.177780	1.030434	-0.436472	-0.179381	1.038785	-0.702985	-0.268880	1.015626	-0.506099	-0.272684	1.018807	-0.619566	-0.276810	1.025520	-0.563466	-0.235229	0.774183	-0.413753	-0.221814	0.716358	-0.404609	-0.160177	0.729285	-0.389355	-0.165473	0.790251	-0.395748	-0.273725	0.346947	-0.376303	-0.285937	0.308125	-0.376261	-0.232704	0.291144	-0.363719	-0.216267	0.330750	-0.365212	-0.334181	0.147068	-0.404622	-0.211293	0.036896	-0.359532	-0.184793	0.041785	-0.432349	-0.166403	0.029644	-0.423930	-0.204895	0.785843	-0.752841	-0.194103	0.725370	-0.757217	-0.130002	0.729873	-0.746206	-0.133411	0.789322	-0.741031	-0.276860	0.334407	-0.776568	-0.283118	0.290336	-0.775443	-0.230039	0.281145	-0.770086	-0.216321	0.319444	-0.770969	-0.345192	0.163856	-0.729513	-0.226417	0.045446	-0.789822	-0.201689	0.044147	-0.722721	-0.182342	0.028041	-0.733411	
753	3.7650	-0.286156	1.427926	-0.561707	-0.239069	1.384459	-0.739204	-0.196856	1.388019	-0.393333	-0.173829	1.375054	-0.573421	-0.120373	0.977639	-0.483773	-0.126142	0.994359	-0.667112	-0.177408	1.034668	-0.436658	-0.178934	1.042975	-0.702961	-0.268501	1.020120	-0.506245	-0.272215	1.023232	-0.619659	-0.276501	1.029963	-0.563644	-0.235879	0.778581	-0.414271	-0.222851	0.720686	-0.405030	-0.161215	0.733252	-0.389454	-0.166115	0.794247	-0.395929	-0.273771	0.349895	-0.375260	-0.285359	0.310739	-0.375438	-0.231821	0.294519	-0.362964	-0.215925	0.334324	-0.364668	-0.331560	0.150229	-0.403282	-0.209663	0.038393	-0.359492	-0.183711	0.042982	-0.431871	-0.165553	0.030238	-0.423466	-0.205294	0.790154	-0.753135	-0.194792	0.729637	-0.757623	-0.130696	0.733800	-0.746479	-0.133817	0.793255	-0.741181	-0.276396	0.337255	-0.776677	-0.282152	0.293094	-0.775539	-0.228951	0.284502	-0.770385	-0.215672	0.322959	-0.771308	-0.342514	0.166859	-0.729295	-0.225023	0.047116	-0.789303	-0.200129	0.045748	-0.722736	-0.181192	0.028859	-0.733463	
754	3.7700	-0.286160	1.431749	-0.561631	-0.239300	1.388481	-0.739061	-0.197013	1.391852	-0.393440	-0.173939	1.378956	-0.573413	-0.120224	0.981257	-0.483868	-0.125876	0.997948	-0.667036	-0.177110	1.038628	-0.436828	-0.178492	1.046873	-0.702952	-0.268166	1.024334	-0.506411	-0.271773	1.027376	-0.619774	-0.276209	1.034131	-0.563836	-0.236542	0.782687	-0.414728	-0.223861	0.724716	-0.405402	-0.162214	0.736952	-0.389595	-0.166756	0.797967	-0.396140	-0.273687	0.352603	-0.374236	-0.284662	0.313222	-0.374617	-0.230863	0.297658	-0.362349	-0.215478	0.337639	-0.364251	-0.329076	0.153242	-0.402024	-0.207943	0.040043	-0.359509	-0.182592	0.044275	-0.431432	-0.164641	0.030958	-0.423011	-0.205683	0.794170	-0.753416	-0.195448	0.733620	-0.758027	-0.131357	0.737462	-0.746749	-0.134216	0.796920	-0.741317	-0.275895	0.339928	-0.776790	-0.281195	0.295681	-0.775608	-0.227892	0.287652	-0.770617	-0.215015	0.326244	-0.771591	-0.340042	0.169677	-0.729067	-0.223560	0.048907	-0.788738	-0.198555	0.047508	-0.722698	-0.180002	0.029954	-0.733522	
755	3.7750	-0.286145	1.435351	-0.561571	-0.239483	1.392244	-0.738943	-0.197168	1.395422	-0.393545	-0.174028	1.382615	-0.573407	-0.120096	0.984599	-0.483939	-0.125626	1.001253	-0.666976	-0.176870	1.042295	-0.436985	-0.178055	1.050469	-0.702959	-0.267875	1.028260	-0.506589	-0.271357	1.031240	-0.619911	-0.275926	1.038016	-0.564033	-0.237209	0.786486	-0.415097	-0.224838	0.728446	-0.405701	-0.163168	0.740382	-0.389759	-0.167385	0.801415	-0.396366	-0.273489	0.355085	-0.373294	-0.283908	0.315521	-0.373905	-0.229857	0.300557	-0.361893	-0.214945	0.340695	-0.363952	-0.326765	0.156062	-0.400848	-0.206175	0.041824	-0.359583	-0.181451	0.045665	-0.431043	-0.163679	0.031833	-0.422593	-0.206062	0.797865	-0.753685	-0.196058	0.737294	-0.758413	-0.131973	0.740852	-0.747021	-0.134610	0.800306	-0.741447	-0.275384	0.342432	-0.776890	-0.280277	0.298109	-0.775660	-0.226887	0.290590	-0.770794	-0.214369	0.329298	-0.771825	-0.337817	0.172294	-0.728857	-0.222018	0.050807	-0.788132	-0.196975	0.049442	-0.722581	-0.178762	0.031371	-0.733538	
756	3.7800	-0.286112	1.438725	-0.561525	-0.239633	1.395763	-0.738847	-0.197308	1.398731	-0.393600	-0.174101	1.386028	-0.573406	-0.119997	0.987653	-0.483990	-0.125392	1.004271	-0.666936	-0.176679	1.045659	-0.437131	-0.177611	1.053774	-0.702993	-0.267629	1.031904	-0.506780	-0.270969	1.034829	-0.620069	-0.275648	1.041605	-0.564231	-0.237866	0.789990	-0.415364	-0.225769	0.731887	-0.405919	-0.164059	0.743558	-0.389936	-0.167991	0.804600	-0.396596	-0.273181	0.357366	-0.372402	-0.283125	0.317636	-0.373319	-0.228835	0.303224	-0.361576	-0.214346	0.343513	-0.363766	-0.324670	0.158674	-0.399793	-0.204410	0.043713	-0.359697	-0.180294	0.047158	-0.430740	-0.162665	0.032894	-0.422243	-0.206436	0.801227	-0.753942	-0.196616	0.740644	-0.758779	-0.132535	0.743968	-0.747293	-0.134999	0.803412	-0.741581	-0.274892	0.344775	-0.776969	-0.279425	0.300407	-0.775690	-0.225968	0.293325	-0.770922	-0.213758	0.332132	-0.772007	-0.335869	0.174693	-0.728683	-0.220396	0.052802	-0.787491	-0.195387	0.051552	-0.722344	-0.177441	0.033113	-0.733440	
757	3.7850	-0.286065	1.441855	-0.561491	-0.239759	1.399036	-0.738770	-0.197442	1.401768	-0.393624	-0.174155	1.389191	-0.573406	-0.119940	0.990414	-0.484030	-0.125181	1.007002	-0.666918	-0.176517	1.048718	-0.437275	-0.177167	1.056779	-0.703052	-0.267434	1.035266	-0.506983	-0.270617	1.038138	-0.620247	-0.275397	1.044913	-0.564446	-0.238498	0.793193	-0.415543	-0.226640	0.735023	-0.406065	-0.164880	0.746481	-0.390112	-0.168566	0.807525	-0.396809	-0.272795	0.359476	-0.371584	-0.282354	0.319611	-0.372768	-0.227827	0.305665	-0.361393	-0.213711	0.346101	-0.363688	-0.322823	0.161058	-0.398869	-0.202681	0.045672	-0.359834	-0.179122	0.048748	-0.430540	-0.161597	0.034159	-0.421990	-0.206809	0.804241	-0.754188	-0.197118	0.743651	-0.759118	-0.133038	0.746806	-0.747560	-0.135380	0.806245	-0.741730	-0.274438	0.346983	-0.777018	-0.278665	0.302585	-0.775692	-0.225153	0.295872	-0.771004	-0.213202	0.334757	-0.772135	-0.334199	0.176851	-0.728564	-0.218697	0.054869	-0.786821	-0.193792	0.053815	-0.721962	-0.176015	0.035150	-0.733167	
758	3.7900	-0.286004	1.444732	-0.561467	-0.239865	1.402062	-0.738707	-0.197567	1.404538	-0.393628	-0.174188	1.392098	-0.573409	-0.119935	0.992896	-0.484070	-0.124998	1.009448	-0.666926	-0.176383	1.051475	-0.437417	-0.176730	1.059491	-0.703137	-0.267295	1.038354	-0.507183	-0.270308	1.041174	-0.620444	-0.275171	1.047955	-0.564662	-0.239095	0.796099	-0.415628	-0.227425	0.737864	-0.406132	-0.165611	0.749152	-0.390275	-0.169097	0.810195	-0.397000	-0.272355	0.361448	-0.370857	-0.281602	0.321484	-0.372176	-0.226885	0.307903	-0.361341	-0.213077	0.348468	-0.363702	-0.321226	0.163213	-0.398129	-0.201011	0.047673	-0.360002	-0.177937	0.050442	-0.430465	-0.160473	0.035635	-0.421857	-0.207175	0.806913	-0.754422	-0.197562	0.746316	-0.759421	-0.133482	0.749365	-0.747820	-0.135755	0.808801	-0.741900	-0.274040	0.349061	-0.777023	-0.278016	0.304656	-0.775663	-0.224455	0.298238	-0.771048	-0.212717	0.337182	-0.772214	-0.332810	0.178773	-0.728504	-0.216935	0.056982	-0.786132	-0.192187	0.056200	-0.721442	-0.174470	0.037427	-0.732688	
759	3.7950	-0.285931	1.447351	-0.561455	-0.239949	1.404832	-0.738655	-0.197681	1.407042	-0.393621	-0.174202	1.394746	-0.573415	-0.119991	0.995120	-0.484121	-0.124848	1.011612	-0.666958	-0.176269	1.053945	-0.437564	-0.176316	1.061918	-0.703246	-0.267218	1.041163	-0.507380	-0.270049	1.043926	-0.620663	-0.274996	1.050728	-0.564886	-0.239643	0.798697	-0.415626	-0.228115	0.740426	-0.406112	-0.166239	0.751575	-0.390406	-0.169572	0.812621	-0.397164	-0.271902	0.363297	-0.370246	-0.280940	0.323237	-0.371666	-0.226025	0.309963	-0.361393	-0.212467	0.350626	-0.363788	-0.319892	0.165137	-0.397596	-0.199414	0.049681	-0.360210	-0.176743	0.052231	-0.430530	-0.159296	0.037312	-0.421875	-0.207534	0.809241	-0.754636	-0.197951	0.748643	-0.759675	-0.133867	0.751650	-0.748072	-0.136116	0.811079	-0.742096	-0.273701	0.351016	-0.776975	-0.277483	0.306622	-0.775604	-0.223887	0.300422	-0.771052	-0.212308	0.339410	-0.772243	-0.331691	0.180460	-0.728501	-0.215134	0.059113	-0.785435	-0.190581	0.058670	-0.720798	-0.172813	0.039882	-0.732009	
